<svg width="167" height="51" viewBox="0 0 167 51" fill="none" xmlns="http://www.w3.org/2000/svg">
<path d="M14.3274 24.552H19.1754C21.8314 24.552 23.6874 23.864 24.7434 22.488C25.6394 21.304 26.0874 19.416 26.0874 16.824C26.0874 14.104 25.4954 12.04 24.3114 10.632C23.1274 9.224 21.3034 8.52 18.8394 8.52H16.5354C15.8634 8.52 15.3674 8.568 15.0474 8.664C14.7274 8.76 14.5194 8.968 14.4234 9.288C14.3594 9.576 14.3274 10.184 14.3274 11.112V24.552ZM14.3274 24.984V35.784C14.3274 36.712 14.3914 37.304 14.5194 37.56C14.5834 37.688 14.8074 37.832 15.1914 37.992C15.5754 38.12 16.3274 38.232 17.4474 38.328C18.5674 38.424 20.1034 38.472 22.0554 38.472V39H1.31938V38.472C2.95138 38.472 4.29538 38.424 5.35138 38.328C6.43938 38.232 7.17538 38.12 7.55938 37.992C7.94338 37.832 8.16738 37.688 8.23138 37.56C8.35938 37.304 8.42338 36.712 8.42338 35.784V11.112C8.42338 10.248 8.35938 9.688 8.23138 9.432C8.16738 9.304 7.97538 9.176 7.65538 9.048C6.66338 8.696 4.55138 8.52 1.31938 8.52V8.04H19.9434C23.7514 8.04 26.7594 8.92 28.9674 10.68C31.0474 12.344 32.0874 14.52 32.0874 17.208C32.0874 19.032 31.2874 20.696 29.6874 22.2C27.7034 24.056 25.0154 24.984 21.6234 24.984H14.3274ZM45.1666 22.344H49.6306C51.9666 22.344 53.6946 21.912 54.8146 21.048C56.1586 20.024 56.8306 18.296 56.8306 15.864C56.8306 13.176 56.2706 11.288 55.1506 10.2C54.0626 9.08 52.2386 8.52 49.6786 8.52H47.3746C46.7026 8.52 46.2066 8.568 45.8866 8.664C45.5666 8.76 45.3586 8.968 45.2626 9.288C45.1986 9.576 45.1666 10.184 45.1666 11.112V22.344ZM64.6066 32.088V33.672C64.6066 35.56 64.4306 36.872 64.0786 37.608C63.5026 38.824 62.3666 39.432 60.6706 39.432C58.4626 39.432 57.0066 38.6 56.3026 36.936C55.7266 35.592 55.4386 33.032 55.4386 29.256V28.248C55.4386 27.928 55.4546 27.592 55.4866 27.24C55.4866 25.544 55.0866 24.408 54.2866 23.832C53.4866 23.224 52.3346 22.92 50.8306 22.92H45.1666V35.784C45.1666 36.744 45.2146 37.352 45.3106 37.608C45.4386 37.864 45.6786 38.072 46.0306 38.232C46.4146 38.36 47.1666 38.44 48.2866 38.472C49.4386 38.504 50.6386 38.52 51.8866 38.52V39H32.3506V38.472C35.7106 38.472 37.7266 38.344 38.3986 38.088C38.7186 37.96 38.9426 37.784 39.0706 37.56C39.1986 37.304 39.2626 36.712 39.2626 35.784V11.112C39.2626 10.216 39.1986 9.656 39.0706 9.432C39.0066 9.304 38.7986 9.176 38.4466 9.048C37.5186 8.696 35.4866 8.52 32.3506 8.52V8.04H51.9826C55.4386 8.04 58.1906 8.968 60.2386 10.824C61.8706 12.296 62.6866 13.816 62.6866 15.384C62.6866 17.24 62.0466 18.76 60.7666 19.944C59.2306 21.384 56.7986 22.296 53.4706 22.68C56.8626 23.352 59.1026 25.256 60.1906 28.392C60.7346 29.96 61.0066 32.328 61.0066 35.496C61.0066 36.424 61.0866 37.096 61.2466 37.512C61.4066 37.928 61.7906 38.136 62.3986 38.136C63.0706 38.136 63.5346 37.608 63.7906 36.552C64.0466 35.464 64.1746 33.976 64.1746 32.088H64.6066ZM83.6821 27.624L79.2661 15.432L74.8501 27.624H83.6821ZM83.9221 28.2H74.6101L73.1221 32.424C72.7381 33.48 72.5461 34.392 72.5461 35.16C72.5461 36.344 72.9941 37.192 73.8901 37.704C74.7861 38.216 76.0501 38.472 77.6821 38.472V39H65.5381V38.472C67.7461 38.472 69.4581 37.64 70.6741 35.976C71.3461 35.048 72.2101 33.128 73.2661 30.216L81.3781 7.656H82.3861L92.7061 35.784C93.1861 37.096 93.6661 37.88 94.1461 38.136C94.6261 38.36 96.0661 38.472 98.4661 38.472V39H80.8021V38.472C83.2021 38.472 84.8501 38.392 85.7461 38.232C86.6421 38.04 87.0901 37.672 87.0901 37.128L86.9941 36.648L83.9221 28.2ZM117.544 39H98.8719V38.472C100.312 38.472 101.544 38.424 102.568 38.328C103.592 38.232 104.296 38.12 104.68 37.992C105.064 37.832 105.288 37.688 105.352 37.56C105.48 37.336 105.544 36.744 105.544 35.784V11.208C105.544 10.312 105.48 9.736 105.352 9.48C105.288 9.352 105.08 9.224 104.728 9.096C103.704 8.712 101.752 8.52 98.8719 8.52V8.04H117.592C121.208 8.04 124.472 9.368 127.384 12.024C130.744 15.064 132.424 18.952 132.424 23.688C132.424 28.36 130.936 32.12 127.96 34.968C125.144 37.656 121.672 39 117.544 39ZM117.544 38.472C120.584 38.472 122.792 37.24 124.168 34.776C125.576 32.312 126.28 28.616 126.28 23.688C126.28 19.016 125.576 15.368 124.168 12.744C122.664 9.928 120.456 8.52 117.544 8.52C116.008 8.52 114.824 8.552 113.992 8.616C113.192 8.648 112.616 8.728 112.264 8.856C111.944 8.984 111.72 9.176 111.592 9.432C111.496 9.656 111.448 10.248 111.448 11.208V35.784C111.448 36.712 111.496 37.32 111.592 37.608C111.72 37.896 111.944 38.104 112.264 38.232C112.584 38.36 113.272 38.44 114.328 38.472C115.384 38.472 116.456 38.472 117.544 38.472ZM151.651 27.624L147.235 15.432L142.819 27.624H151.651ZM151.891 28.2H142.579L141.091 32.424C140.707 33.48 140.515 34.392 140.515 35.16C140.515 36.344 140.963 37.192 141.859 37.704C142.755 38.216 144.019 38.472 145.651 38.472V39H133.507V38.472C135.715 38.472 137.427 37.64 138.643 35.976C139.315 35.048 140.179 33.128 141.235 30.216L149.347 7.656H150.355L160.675 35.784C161.155 37.096 161.635 37.88 162.115 38.136C162.595 38.36 164.035 38.472 166.435 38.472V39H148.771V38.472C151.171 38.472 152.819 38.392 153.715 38.232C154.611 38.04 155.059 37.672 155.059 37.128L154.963 36.648L151.891 28.2Z" fill="black"/>
</svg>
